<svg width="72" height="72" viewBox="0 0 72 72" fill="none" xmlns="http://www.w3.org/2000/svg">
<rect width="72" height="72" rx="36" fill="#255FF0"/>
<path d="M31.0685 47.5779L31.9972 46.3999L31.0685 47.5779ZM35.4993 28.0213L34.4186 29.0615C34.7014 29.3553 35.0916 29.5213 35.4993 29.5213C35.9071 29.5213 36.2973 29.3553 36.5801 29.0615L35.4993 28.0213ZM39.9302 47.5779L40.8588 48.7559L39.9302 47.5779ZM31.9972 46.3999C29.7627 44.6385 27.3908 42.9699 25.5048 40.8461C23.6702 38.7803 22.416 36.4022 22.416 33.3245H19.416C19.416 37.3385 21.0927 40.3959 23.2616 42.8382C25.3791 45.2226 28.0835 47.1348 30.1399 48.7559L31.9972 46.3999ZM22.416 33.3245C22.416 30.3398 24.1019 27.8579 26.3704 26.821C28.5444 25.8273 31.5214 26.0514 34.4186 29.0615L36.5801 26.9811C32.9151 23.1733 28.6004 22.5031 25.1232 24.0925C21.7406 25.6387 19.416 29.2174 19.416 33.3245H22.416ZM30.1399 48.7559C30.8832 49.3418 31.707 49.9878 32.5481 50.4793C33.3887 50.9706 34.3894 51.3954 35.4993 51.3954V48.3954C35.151 48.3954 34.6933 48.2583 34.0617 47.8892C33.4305 47.5203 32.768 47.0076 31.9972 46.3999L30.1399 48.7559ZM40.8588 48.7559C42.9152 47.1348 45.6196 45.2226 47.7371 42.8382C49.906 40.3959 51.5827 37.3385 51.5827 33.3245H48.5827C48.5827 36.4022 47.3285 38.7803 45.4939 40.8461C43.6079 42.9699 41.236 44.6385 39.0015 46.3999L40.8588 48.7559ZM51.5827 33.3245C51.5827 29.2174 49.2581 25.6387 45.8755 24.0925C42.3983 22.5031 38.0836 23.1733 34.4186 26.9811L36.5801 29.0615C39.4773 26.0514 42.4543 25.8273 44.6283 26.821C46.8968 27.8579 48.5827 30.3398 48.5827 33.3245H51.5827ZM39.0015 46.3999C38.2307 47.0076 37.5682 47.5203 36.937 47.8892C36.3054 48.2583 35.8477 48.3954 35.4993 48.3954V51.3954C36.6093 51.3954 37.61 50.9706 38.4506 50.4793C39.2917 49.9878 40.1155 49.3418 40.8588 48.7559L39.0015 46.3999Z" fill="white"/>
</svg>
