<svg width="170" height="28" viewBox="0 0 170 28" fill="none" xmlns="http://www.w3.org/2000/svg">
<g clip-path="url(#clip0_950_1315)">
<path d="M0 6.02226H7.72393V27.3978H13.6622V6.02226H21.3758V0.675781H0V6.02226Z" fill="white"/>
<path d="M37.6338 17.3795C37.6338 20.4628 36.1077 22.944 33.0347 22.944C29.9617 22.944 28.4356 20.4524 28.4356 17.3795V7.36133H22.8711V17.3795C22.8711 23.245 26.8784 27.9998 33.0451 27.9998C39.2118 27.9998 43.2191 23.245 43.2191 17.3795V7.36133H37.6545V17.3795H37.6338Z" fill="white"/>
<path d="M92.2224 6.75879C86.0973 6.75879 81.166 11.5135 81.166 17.3791C81.166 23.2446 86.0973 27.9994 92.2224 27.9994C98.3476 27.9994 103.279 23.2446 103.279 17.3791C103.279 11.5135 98.3372 6.75879 92.2224 6.75879ZM92.2224 22.9436C89.1806 22.9436 86.7306 20.452 86.7306 17.3791C86.7306 14.3062 89.1806 11.8146 92.2224 11.8146C95.2643 11.8146 97.7143 14.3062 97.7143 17.3791C97.7143 20.452 95.2643 22.9436 92.2224 22.9436Z" fill="white"/>
<path d="M119.463 27.9678C111.396 27.9678 104.887 21.7181 104.887 13.9839C104.887 6.24967 111.396 0 119.463 0C125.826 0 131.256 3.90345 133.218 9.37451H126.75C125.224 6.95562 122.546 5.35686 119.463 5.35686C114.697 5.35686 110.835 9.22917 110.835 13.9839C110.835 18.7386 114.708 22.6109 119.463 22.6109C122.515 22.6109 125.152 21.0537 126.678 18.666H133.146C131.142 24.0955 125.785 27.9678 119.463 27.9678Z" fill="white"/>
<path d="M168.838 6.89258H169.575V11.9069C166.512 11.9069 164.041 14.3777 164.041 17.4402V27.3961H158.508V17.4402C158.508 11.6162 162.712 6.89258 168.838 6.89258Z" fill="white"/>
<path d="M145.457 6.50879C139.716 6.50879 135.055 11.1805 135.055 16.9111C135.055 22.6417 139.726 27.3133 145.457 27.3133H148.52V22.2056H145.457C142.54 22.2056 140.162 19.8283 140.162 16.9111C140.162 13.9939 142.54 11.6165 145.457 11.6165C148.374 11.6165 150.752 13.9939 150.752 16.9111V27.3133H155.859V16.9111C155.859 11.1701 151.188 6.50879 145.457 6.50879Z" fill="white"/>
<path d="M69.0901 7.05003H65.9029V12.1889H69.0901C72.0281 12.1889 74.4158 14.5766 74.4158 17.5146C74.4158 20.4526 72.0281 22.8403 69.0901 22.8403C66.1521 22.8403 63.7643 20.4526 63.7643 17.5146V0.675781H58.6254V7.14347H56.2065C50.0502 7.14347 45.8145 11.8982 45.8145 17.7638V27.3978H51.379V17.7638C51.379 14.6804 53.8602 12.1993 56.9435 12.1993H58.6254V17.525C58.6254 23.2971 63.3179 27.9999 69.1004 27.9999C74.883 27.9999 79.5755 23.3075 79.5755 17.525C79.5755 11.7425 74.883 7.05003 69.1004 7.05003H69.0901Z" fill="white"/>
</g>
<defs>
<clipPath id="clip0_950_1315">
<rect width="169.574" height="28" fill="white"/>
</clipPath>
</defs>
</svg>
