<svg width="72" height="72" viewBox="0 0 72 72" fill="none" xmlns="http://www.w3.org/2000/svg">
<rect width="72" height="72" rx="36" fill="#255FF0"/>
<circle cx="34.5833" cy="26.7503" r="5.83333" stroke="white" stroke-width="3"/>
<path d="M46.2493 43.5205C46.2493 47.1449 46.2493 50.083 34.5827 50.083C22.916 50.083 22.916 47.1449 22.916 43.5205C22.916 39.8961 28.1394 36.958 34.5827 36.958C41.026 36.958 46.2493 39.8961 46.2493 43.5205Z" stroke="white" stroke-width="3"/>
<path d="M46.3132 36.0335L47.2005 34.8241L47.2005 34.8241L46.3132 36.0335ZM47.709 30.6752L46.6716 31.7586C47.2517 32.3141 48.1663 32.3141 48.7464 31.7586L47.709 30.6752ZM49.1048 36.0335L48.2175 34.8241L48.2175 34.8241L49.1048 36.0335ZM47.709 36.7072L47.709 38.2072H47.709L47.709 36.7072ZM47.2005 34.8241C46.6024 34.3852 45.958 33.8474 45.478 33.2923C44.9587 32.6918 44.834 32.3039 44.834 32.1414H41.834C41.834 33.4145 42.5586 34.5029 43.2088 35.2547C43.8982 36.0518 44.7435 36.7422 45.4258 37.2428L47.2005 34.8241ZM44.834 32.1414C44.834 31.4425 45.1357 31.2523 45.2795 31.2019C45.4652 31.1368 45.9861 31.1023 46.6716 31.7586L48.7464 29.5918C47.4632 28.3631 45.7966 27.8417 44.287 28.3708C42.7354 28.9147 41.834 30.4002 41.834 32.1414H44.834ZM49.9922 37.2428C50.6745 36.7422 51.5197 36.0518 52.2091 35.2547C52.8593 34.5029 53.584 33.4145 53.584 32.1414H50.584C50.584 32.3039 50.4593 32.6918 49.94 33.2923C49.4599 33.8474 48.8156 34.3852 48.2175 34.8241L49.9922 37.2428ZM53.584 32.1414C53.584 30.4002 52.6825 28.9147 51.131 28.3708C49.6214 27.8417 47.9548 28.3631 46.6716 29.5918L48.7464 31.7586C49.4319 31.1023 49.9528 31.1368 50.1385 31.2019C50.2823 31.2523 50.584 31.4425 50.584 32.1414H53.584ZM45.4258 37.2428C45.9357 37.617 46.6496 38.2072 47.709 38.2072L47.709 35.2072C47.7085 35.2072 47.7147 35.2072 47.7259 35.2086C47.7373 35.21 47.7496 35.2124 47.7614 35.2156C47.7865 35.2223 47.7901 35.2272 47.7617 35.2122C47.7286 35.1947 47.672 35.161 47.5733 35.093C47.4732 35.024 47.3586 34.9401 47.2005 34.8241L45.4258 37.2428ZM48.2175 34.8241C48.0593 34.9401 47.9448 35.024 47.8446 35.093C47.7459 35.161 47.6894 35.1947 47.6563 35.2122C47.6279 35.2272 47.6314 35.2223 47.6565 35.2156C47.6684 35.2124 47.6807 35.21 47.6921 35.2086C47.7032 35.2072 47.7095 35.2072 47.709 35.2072L47.709 38.2072C48.7684 38.2072 49.4823 37.617 49.9922 37.2428L48.2175 34.8241Z" fill="white"/>
</svg>
