<svg width="72" height="72" viewBox="0 0 72 72" fill="none" xmlns="http://www.w3.org/2000/svg">
<rect width="72" height="72" rx="36" fill="#255FF0"/>
<path d="M26.2687 32.4588L30.7343 26.4168C33.6209 22.5114 35.0642 20.5586 36.4108 20.9713C37.7573 21.3839 37.7573 23.779 37.7573 28.569V29.0207C37.7573 30.7484 37.7573 31.6122 38.3094 32.1541L38.3386 32.1821C38.9025 32.7125 39.8016 32.7125 41.5997 32.7125C44.8356 32.7125 46.4535 32.7125 47.0003 33.6939C47.0094 33.7101 47.0182 33.7265 47.0267 33.743C47.5429 34.7396 46.6061 36.007 44.7325 38.5419L40.2669 44.5838C37.3803 48.4893 35.937 50.4421 34.5904 50.0294C33.2438 49.6167 33.2439 47.2216 33.244 42.4315L33.244 41.9801C33.244 40.2524 33.244 39.3885 32.692 38.8467L32.6628 38.8186C32.0988 38.2882 31.1997 38.2882 29.4015 38.2882C26.1657 38.2882 24.5478 38.2882 24.001 37.3068C23.9919 37.2906 23.9831 37.2742 23.9746 37.2577C23.4584 36.2611 24.3952 34.9937 26.2687 32.4588Z" stroke="white" stroke-width="3"/>
</svg>
